<svg width="257" height="250" viewBox="0 0 257 250" fill="none" xmlns="http://www.w3.org/2000/svg">
<g clip-path="url(#clip0_127_22)">
<path d="M211.49 0H45.5104C20.3757 0 0 20.329 0 45.406V204.594C0 229.671 20.3757 250 45.5104 250H211.49C236.624 250 257 229.671 257 204.594V45.406C257 20.329 236.624 0 211.49 0Z" fill="#FCF3EA"/>
<path d="M103.244 149.573H63.4186L55.3158 174.734C55.2055 175.192 54.9384 175.597 54.5607 175.88C54.183 176.162 53.7183 176.305 53.2468 176.282H33.0756C31.9253 176.282 31.523 175.651 31.8688 174.39L66.3498 75.7224C66.6944 74.6906 67.0394 73.6818 67.384 72.3619C67.8356 70.0671 68.0665 67.7345 68.0737 65.3959C68.0503 65.2323 68.0654 65.0656 68.1178 64.9089C68.1702 64.7521 68.2584 64.6097 68.3755 64.4929C68.4926 64.3761 68.6353 64.288 68.7924 64.2357C68.9494 64.1834 69.1166 64.1683 69.2805 64.1916H96.6929C97.4955 64.1916 97.9553 64.4783 98.0722 65.0518L137.208 174.562C137.552 175.71 137.208 176.283 136.174 176.282H113.761C113.376 176.325 112.989 176.226 112.671 176.004C112.354 175.783 112.129 175.453 112.037 175.078L103.244 149.573ZM69.6256 128.357H96.8654C96.1758 126.065 95.3711 123.485 94.4514 120.617C93.5301 117.752 92.5532 114.684 91.5207 111.414C90.4865 108.146 89.452 104.878 88.4174 101.61C87.3832 98.3417 86.4349 95.1882 85.5725 92.1492C84.7108 89.1123 83.9351 86.3316 83.2452 83.807H83.0727C82.1026 88.4526 80.8942 93.0455 79.4523 97.5675C77.8414 102.728 76.2036 108.003 74.5389 113.392C72.8716 118.784 71.2338 123.772 69.6256 128.357Z" fill="#241F1F"/>
<path d="M200.654 139.779H166.69C167.106 143.132 168.222 146.361 169.966 149.256C171.894 152.124 174.621 154.366 177.81 155.707C182.133 157.573 186.808 158.487 191.517 158.387C195.252 158.315 198.974 157.908 202.636 157.169C205.912 156.728 209.122 155.893 212.197 154.682C212.771 154.226 213.059 154.51 213.059 155.543V171.883C213.088 172.328 212.998 172.773 212.8 173.173C212.603 173.486 212.338 173.75 212.025 173.947C208.614 175.454 205.025 176.521 201.343 177.122C196.342 178.059 191.26 178.491 186.172 178.412C178.009 178.412 171.171 177.151 165.655 174.628C160.442 172.336 155.837 168.861 152.208 164.479C148.819 160.35 146.297 155.583 144.795 150.46C143.307 145.405 142.552 140.163 142.554 134.894C142.538 129.14 143.44 123.421 145.226 117.951C146.946 112.615 149.667 107.653 153.243 103.33C156.77 99.0575 161.181 95.5957 166.173 93.1816C171.229 90.717 177.207 89.8328 184.103 89.8328C189.822 89.6886 195.503 90.8044 200.74 93.1008C205.144 94.9748 209.021 97.8963 212.032 101.61C214.857 105.246 217.016 109.352 218.411 113.737C219.77 117.962 220.468 122.372 220.48 126.809C220.48 129.333 220.394 131.626 220.221 133.69C220.049 135.754 219.906 137.244 219.791 138.162C219.746 138.541 219.563 138.891 219.277 139.144C218.991 139.398 218.621 139.538 218.239 139.538C217.549 139.538 216.371 139.624 214.705 139.796C213.037 139.968 210.968 140.083 208.498 140.14C206.025 140.199 203.412 139.779 200.654 139.779ZM166.69 124.11H189.275C192.034 124.11 194.074 124.081 195.395 124.024C196.28 123.936 197.133 123.653 197.896 123.197V122.165C197.861 120.82 197.628 119.487 197.206 118.209C196.276 115.274 194.406 112.726 191.883 110.954C189.36 109.183 186.324 108.287 183.241 108.404C180.34 108.229 177.45 108.901 174.924 110.336C172.399 111.772 170.346 113.909 169.018 116.489C167.837 118.888 167.051 121.461 166.69 124.11Z" fill="#241F1F"/>
</g>
<defs>
<clipPath id="clip0_127_22">
<rect width="257" height="250" fill="white"/>
</clipPath>
</defs>
</svg>
