<svg width="251" height="251" viewBox="0 0 251 251" fill="none" xmlns="http://www.w3.org/2000/svg">
<path d="M104.547 115.26C102.596 116.654 100.089 117.49 97.0235 117.49H79.7474V99.3776H95.9089C97.5807 99.3776 98.974 99.3776 100.367 99.6563C101.76 99.9349 102.875 100.492 103.99 101.049C105.104 101.885 105.94 102.721 106.497 103.836C107.055 104.951 107.333 106.622 107.333 108.294C107.333 111.359 106.497 113.867 104.547 115.26Z" fill="#FCF3EA"/>
<path d="M102.596 149.813C101.203 150.091 99.5313 150.37 97.8594 150.37H79.7474V128.914H98.138C101.76 128.914 104.826 129.75 107.055 131.422C109.284 133.372 110.398 136.159 110.398 140.06C110.398 142.01 109.841 143.682 109.284 145.076C108.448 146.469 107.612 147.305 106.497 148.141C105.383 148.977 103.99 149.534 102.596 149.813Z" fill="#FCF3EA"/>
<path d="M160.555 117.768C164.177 117.768 167.242 118.883 169.193 120.833C171.143 122.784 172.537 125.57 173.094 129.75H148.016C148.016 128.827 148.207 127.903 148.431 126.822C148.477 126.598 148.525 126.367 148.573 126.128C148.852 124.734 149.409 123.341 150.523 122.227C151.638 121.112 152.753 119.997 154.425 119.161C156.096 118.326 158.047 117.768 160.555 117.768Z" fill="#FCF3EA"/>
<path fill-rule="evenodd" clip-rule="evenodd" d="M39.2188 0C17.5588 0 0 17.5588 0 39.2188V211.781C0 233.441 17.5588 251 39.2188 251H211.781C233.441 251 251 233.441 251 211.781V39.2188C251 17.5588 233.441 0 211.781 0H39.2188ZM109.284 87.3958C106.219 86.5599 102.875 86.2812 99.2526 86.2812H62.75V163.188H100.089C103.432 163.188 106.776 162.63 110.12 161.794C113.464 160.958 116.529 159.565 119.036 157.893C121.544 156.221 123.773 153.714 125.167 150.927C126.56 148.141 127.396 144.797 127.396 140.896C127.396 136.159 126.003 131.979 123.773 128.635C121.544 125.292 117.922 122.784 113.185 121.391C116.529 119.719 119.315 117.49 120.987 114.982C122.938 112.474 123.773 109.13 123.773 105.229C123.773 101.885 123.216 98.8203 122.102 96.3125C120.987 93.8047 119.315 91.8542 117.086 90.4609C114.857 89.0677 112.349 87.9531 109.284 87.3958ZM161.669 153.435C157.211 153.435 153.867 152.32 151.638 150.091C149.409 147.862 147.737 143.682 147.737 139.224H188.141C188.419 134.766 188.141 130.865 187.583 126.964C186.469 123.063 184.797 119.44 182.568 116.375C180.339 113.031 177.552 110.802 173.93 108.852C170.307 106.901 166.128 106.065 161.391 106.065C156.932 106.065 153.31 106.901 149.688 108.294C146.344 109.688 143.279 111.917 140.771 114.424C138.263 117.211 136.313 120.276 134.919 123.898C133.526 127.521 132.969 131.422 132.969 135.602C132.969 140.06 133.526 143.961 134.919 147.583C136.034 151.206 137.984 154.271 140.492 156.779C143 159.565 145.786 161.516 149.409 162.909C153.031 164.302 156.932 165.138 161.391 165.138C167.8 165.138 173.094 163.466 177.552 160.68C182.01 157.615 185.354 152.878 187.583 146.19H173.93C173.372 147.862 171.979 149.534 169.75 151.206C167.521 152.599 164.734 153.435 161.669 153.435ZM175.88 91.5755H144.672V99.099H175.88V91.5755Z" fill="#FCF3EA"/>
</svg>
