<svg width="250" height="250" viewBox="0 0 250 250" fill="none" xmlns="http://www.w3.org/2000/svg">
<rect width="250" height="250" rx="43.4783" fill="#FCF3EA"/>
<g clip-path="url(#clip0_127_61)">
<path d="M125 126.389C125 119.39 127.78 112.678 132.729 107.729C137.678 102.78 144.39 100 151.389 100C158.388 100 165.1 102.78 170.049 107.729C174.998 112.678 177.778 119.39 177.778 126.389C177.778 133.388 174.998 140.1 170.049 145.049C165.1 149.998 158.388 152.778 151.389 152.778C144.39 152.778 137.678 149.998 132.729 145.049C127.78 140.1 125 133.388 125 126.389Z" fill="#241F1F"/>
<path d="M72.2218 179.167C72.2218 172.168 75.0021 165.456 79.9509 160.507C84.8998 155.559 91.6119 152.778 98.6107 152.778H125V179.167C125 186.166 122.219 192.878 117.27 197.827C112.322 202.776 105.609 205.556 98.6107 205.556C91.6119 205.556 84.8998 202.776 79.9509 197.827C75.0021 192.878 72.2218 186.166 72.2218 179.167V179.167Z" fill="#241F1F"/>
<path d="M125 47.2227V100H151.389C158.388 100 165.1 97.2202 170.049 92.2713C174.998 87.3224 177.778 80.6103 177.778 73.6115C177.778 66.6128 174.998 59.9007 170.049 54.9518C165.1 50.0029 158.388 47.2227 151.389 47.2227H125Z" fill="#241F1F"/>
<path d="M72.2218 73.6115C72.2218 80.6103 75.0021 87.3224 79.9509 92.2713C84.8998 97.2202 91.6119 100 98.6107 100H125V47.2227H98.6107C91.6119 47.2227 84.8998 50.0029 79.9509 54.9518C75.0021 59.9007 72.2218 66.6128 72.2218 73.6115V73.6115Z" fill="#241F1F"/>
<path d="M72.2218 126.389C72.2218 133.388 75.0021 140.1 79.9509 145.049C84.8998 149.998 91.6119 152.778 98.6107 152.778H125V100H98.6107C91.6119 100 84.8998 102.78 79.9509 107.729C75.0021 112.678 72.2218 119.39 72.2218 126.389V126.389Z" fill="#241F1F"/>
</g>
<defs>
<clipPath id="clip0_127_61">
<rect width="105.556" height="158.333" fill="white" transform="translate(72.2218 47.2227)"/>
</clipPath>
</defs>
</svg>
