<svg width="257" height="250" viewBox="0 0 257 250" fill="none" xmlns="http://www.w3.org/2000/svg">
<g clip-path="url(#clip0_127_50)">
<path d="M211.49 0H45.5104C20.3757 0 0 20.329 0 45.406V204.594C0 229.671 20.3757 250 45.5104 250H211.49C236.624 250 257 229.671 257 204.594V45.406C257 20.329 236.624 0 211.49 0Z" fill="#FCF3EA"/>
<path d="M124.538 150.03H84.7129L76.61 175.143C76.4995 175.601 76.2325 176.006 75.8548 176.289C75.4771 176.571 75.0125 176.714 74.541 176.691H54.3698C53.2195 176.691 52.8172 176.06 53.163 174.799L87.6435 75.7219C87.9886 74.6901 88.3335 73.5147 88.6783 72.1957C89.1293 69.9008 89.3602 67.5682 89.3679 65.2296C89.3445 65.0661 89.3596 64.8993 89.412 64.7426C89.4643 64.5858 89.5526 64.4434 89.6697 64.3266C89.7867 64.2097 89.9295 64.1217 90.0866 64.0694C90.2437 64.0171 90.4108 64.002 90.5747 64.0254H117.987C118.79 64.0254 119.249 64.3121 119.366 64.8856L158.502 174.971C158.847 176.119 158.502 176.692 157.467 176.691H135.055C134.67 176.734 134.282 176.635 133.965 176.413C133.648 176.192 133.422 175.862 133.331 175.487L124.538 150.03ZM90.9193 128.357H118.159C117.47 126.064 116.665 123.484 115.746 120.616C114.824 117.751 113.847 114.684 112.815 111.414C111.78 108.146 110.746 104.878 109.711 101.609C108.677 98.3412 107.729 95.1877 106.867 92.1487C106.005 89.1118 105.229 86.3311 104.54 83.8065H104.367C103.396 88.452 102.188 93.0448 100.747 97.567C99.1357 102.727 97.4977 108.002 95.8327 113.392C94.1653 118.783 92.5275 123.772 90.9193 128.357H90.9193Z" fill="#241F1F"/>
<path d="M181.774 82.2585C180.016 82.3289 178.262 82.0283 176.628 81.3762C174.994 80.7241 173.517 79.7352 172.292 78.4743C171.071 77.1587 170.122 75.6152 169.501 73.9326C168.879 72.25 168.598 70.4615 168.671 68.6698C168.609 66.8959 168.922 65.1287 169.59 63.4837C170.259 61.8387 171.267 60.3529 172.55 59.1233C173.821 57.9064 175.321 56.953 176.963 56.3182C178.606 55.6835 180.358 55.3799 182.119 55.4252C186.257 55.4252 189.504 56.6579 191.86 59.1233C193.049 60.4045 193.974 61.9072 194.58 63.5454C195.186 65.1835 195.463 66.9249 195.394 68.6698C195.466 70.4685 195.175 72.2632 194.538 73.9475C193.902 75.6318 192.932 77.1712 191.687 78.4743C190.386 79.7537 188.834 80.7505 187.128 81.4018C185.422 82.0531 183.599 82.3448 181.774 82.2585ZM169.878 174.971V92.7508C169.878 91.7189 170.336 91.2027 171.257 91.2027H192.463C193.382 91.2027 193.842 91.7188 193.843 92.7508V174.971C193.843 176.119 193.383 176.692 192.463 176.691H171.43C170.396 176.691 169.878 176.118 169.878 174.971Z" fill="#241F1F"/>
</g>
<defs>
<clipPath id="clip0_127_50">
<rect width="257" height="250" fill="white"/>
</clipPath>
</defs>
</svg>
