<svg width="257" height="251" viewBox="0 0 257 251" fill="none" xmlns="http://www.w3.org/2000/svg">
<path d="M211.215 0H45.4514C20.3493 0 0 20.3493 0 45.4514V204.799C0 229.901 20.3493 250.25 45.4514 250.25H211.215C236.317 250.25 256.667 229.901 256.667 204.799V45.4514C256.667 20.3493 236.317 0 211.215 0Z" fill="#FCF3EA"/>
<path d="M93.2109 65.4675V175.146C93.2109 176.295 92.6945 176.869 91.6616 176.868H70.8272C69.9076 176.868 69.4486 176.294 69.4502 175.146V65.4675C69.4502 64.5501 69.9666 64.0909 70.9995 64.09H91.8334C92.0205 64.0634 92.2112 64.0807 92.3904 64.1405C92.5697 64.2004 92.7326 64.3011 92.8662 64.4347C92.9998 64.5683 93.1005 64.7312 93.1604 64.9105C93.2202 65.0897 93.2375 65.2804 93.2109 65.4675Z" fill="#241F1F"/>
<path d="M154.852 178.59C146.927 178.71 139.074 177.064 131.865 173.769C125.15 170.661 119.536 165.587 115.767 159.22C111.863 152.736 109.911 144.615 109.913 134.856C109.848 126.954 111.867 119.174 115.767 112.3C119.784 105.299 125.691 99.5707 132.813 95.7709C140.273 91.6386 149.283 89.5725 159.845 89.5725C160.418 89.5725 161.164 89.6013 162.083 89.6587C163 89.7177 164.091 89.8038 165.354 89.9169V55.9974C165.354 55.1955 165.699 54.7921 166.388 54.7921H188.082C188.223 54.772 188.366 54.7849 188.5 54.8297C188.635 54.8745 188.757 54.95 188.857 55.0502C188.957 55.1504 189.033 55.2726 189.078 55.4071C189.123 55.5416 189.136 55.6846 189.116 55.825V157.584C189.116 159.537 189.202 161.661 189.374 163.954C189.546 166.252 189.69 168.318 189.804 170.153C189.826 170.511 189.738 170.866 189.554 171.174C189.369 171.481 189.097 171.725 188.771 171.875C183.174 174.209 177.345 175.941 171.381 177.04C165.928 178.047 160.397 178.565 154.852 178.59ZM165.354 157.239V110.234C164.424 109.982 163.474 109.809 162.514 109.718C161.341 109.6 160.163 109.542 158.984 109.546C154.806 109.504 150.676 110.448 146.931 112.3C143.283 114.114 140.169 116.843 137.892 120.221C135.538 123.664 134.361 128.198 134.362 133.823C134.278 137.576 134.891 141.313 136.17 144.842C137.21 147.687 138.855 150.271 140.991 152.418C143.036 154.394 145.511 155.867 148.222 156.723C151.086 157.65 154.08 158.115 157.09 158.1C158.696 158.1 160.188 158.043 161.566 157.928C162.85 157.832 164.119 157.601 165.354 157.239Z" fill="#241F1F"/>
</svg>
