<svg width="251" height="251" viewBox="0 0 251 251" fill="none" xmlns="http://www.w3.org/2000/svg">
<path d="M125.5 147.462C113.734 147.462 103.537 138.05 103.537 125.5C103.537 113.734 112.95 103.537 125.5 103.537C137.266 103.537 147.462 112.95 147.462 125.5C147.462 137.266 137.266 147.462 125.5 147.462Z" fill="#FCF3EA"/>
<path fill-rule="evenodd" clip-rule="evenodd" d="M152.169 72.1625H98.8313C92.5563 72.9469 89.4188 73.7312 87.0656 74.5156C83.9281 75.3 81.575 76.8687 79.2219 79.2219C77.3599 81.0839 76.4801 82.9459 75.4168 85.1965C75.1365 85.7896 74.8427 86.4114 74.5156 87.0656C74.3943 87.4296 74.2542 87.8124 74.104 88.2227C73.2834 90.4646 72.1625 93.527 72.1625 98.8312V152.169C72.9469 158.444 73.7312 161.581 74.5156 163.934C75.3 167.072 76.8688 169.425 79.2219 171.778C81.0839 173.64 82.9459 174.52 85.1965 175.583C85.7901 175.864 86.4108 176.157 87.0656 176.484C87.4297 176.606 87.8124 176.746 88.2227 176.896C90.4646 177.717 93.527 178.837 98.8313 178.837H152.169C158.444 178.053 161.581 177.269 163.934 176.484C167.072 175.7 169.425 174.131 171.778 171.778C173.64 169.916 174.52 168.054 175.583 165.803C175.864 165.21 176.157 164.589 176.484 163.934C176.606 163.57 176.746 163.188 176.896 162.777C177.717 160.535 178.837 157.473 178.837 152.169V98.8312C178.053 92.5562 177.269 89.4187 176.484 87.0656C175.7 83.9281 174.131 81.575 171.778 79.2219C169.916 77.3599 168.054 76.4801 165.803 75.4167C165.211 75.1367 164.588 74.8425 163.934 74.5156C163.57 74.3943 163.188 74.2541 162.777 74.104C160.535 73.2834 157.473 72.1625 152.169 72.1625ZM125.5 91.7719C106.675 91.7719 91.7719 106.675 91.7719 125.5C91.7719 144.325 106.675 159.228 125.5 159.228C144.325 159.228 159.228 144.325 159.228 125.5C159.228 106.675 144.325 91.7719 125.5 91.7719ZM167.856 90.9875C167.856 95.3195 164.344 98.8312 160.012 98.8312C155.681 98.8312 152.169 95.3195 152.169 90.9875C152.169 86.6555 155.681 83.1437 160.012 83.1437C164.344 83.1437 167.856 86.6555 167.856 90.9875Z" fill="#FCF3EA"/>
<path fill-rule="evenodd" clip-rule="evenodd" d="M0 39.2188C0 17.5588 17.5588 0 39.2188 0H211.781C233.441 0 251 17.5588 251 39.2188V211.781C251 233.441 233.441 251 211.781 251H39.2188C17.5588 251 0 233.441 0 211.781V39.2188ZM98.8313 60.3969H152.169C159.228 61.1812 163.934 61.9656 167.856 63.5344C172.562 65.8875 175.7 67.4562 179.622 71.3781C183.544 75.3 185.897 79.2219 187.466 83.1437C189.034 87.0656 190.603 91.7719 190.603 98.8312V152.169C189.819 159.228 189.034 163.934 187.466 167.856C185.113 172.562 183.544 175.7 179.622 179.622C175.7 183.544 171.778 185.897 167.856 187.466C163.934 189.034 159.228 190.603 152.169 190.603H98.8313C91.7719 189.819 87.0656 189.034 83.1438 187.466C78.4375 185.112 75.3 183.544 71.3781 179.622C67.4563 175.7 65.1031 171.778 63.5344 167.856C61.9656 163.934 60.3969 159.228 60.3969 152.169V98.8312C61.1812 91.7719 61.9656 87.0656 63.5344 83.1437C65.8875 78.4375 67.4563 75.3 71.3781 71.3781C75.3 67.4562 79.2219 65.1031 83.1438 63.5344C87.0656 61.9656 91.7719 60.3969 98.8313 60.3969Z" fill="#FCF3EA"/>
</svg>
