<svg width="251" height="251" viewBox="0 0 251 251" fill="none" xmlns="http://www.w3.org/2000/svg">
<path fill-rule="evenodd" clip-rule="evenodd" d="M0 39.2188C0 17.5588 17.5588 0 39.2188 0H211.781C233.441 0 251 17.5588 251 39.2188V211.781C251 233.441 233.441 251 211.781 251H39.2188C17.5588 251 0 233.441 0 211.781V39.2188ZM64.3187 104.322V188.25H90.9875V104.322H64.3187ZM62.75 77.6531C62.75 86.2812 69.025 92.5563 77.6531 92.5563C86.2812 92.5563 92.5563 86.2812 92.5563 77.6531C92.5563 69.025 86.2812 62.75 77.6531 62.75C69.8094 62.75 62.75 69.025 62.75 77.6531ZM161.581 188.25H186.681V136.481C186.681 110.597 170.994 101.969 156.091 101.969C142.756 101.969 133.344 110.597 130.991 116.088V104.322H105.891V188.25H132.559V143.541C132.559 131.775 140.403 125.5 148.247 125.5C156.091 125.5 161.581 129.422 161.581 142.756V188.25Z" fill="#FCF3EA"/>
</svg>
