<svg width="257" height="250" viewBox="0 0 257 250" fill="none" xmlns="http://www.w3.org/2000/svg">
<g clip-path="url(#clip0_157_27)">
<path d="M211.49 0H45.5104C20.3757 0 0 20.329 0 45.406V204.594C0 229.671 20.3757 250 45.5104 250H211.49C236.624 250 257 229.671 257 204.594V45.406C257 20.329 236.624 0 211.49 0Z" fill="#FCF3EA"/>
<path d="M199.688 86.9375V163.062C199.688 169.069 194.819 173.938 188.812 173.938H69.1875C63.1814 173.938 58.3125 169.069 58.3125 163.062V86.9375M199.688 86.9375C199.688 80.9314 194.819 76.0625 188.812 76.0625H69.1875C63.1814 76.0625 58.3125 80.9314 58.3125 86.9375M199.688 86.9375L135.19 131.59C131.466 134.168 126.534 134.168 122.81 131.59L58.3125 86.9375" stroke="#241F1F" stroke-width="14" stroke-linecap="round" stroke-linejoin="round"/>
</g>
<defs>
<clipPath id="clip0_157_27">
<rect width="257" height="250" fill="white"/>
</clipPath>
</defs>
</svg>
