<svg width="257" height="250" viewBox="0 0 257 250" fill="none" xmlns="http://www.w3.org/2000/svg">
<g clip-path="url(#clip0_127_12)">
<path d="M211.49 0H45.5104C20.3757 0 0 20.329 0 45.406V204.594C0 229.671 20.3757 250 45.5104 250H211.49C236.624 250 257 229.671 257 204.594V45.406C257 20.329 236.624 0 211.49 0Z" fill="#FCF3EA"/>
<path d="M57.8696 175.315V65.402C57.8696 64.601 58.2147 64.198 58.9044 64.198C60.7412 64.198 62.4184 64.1711 64.948 64.1119C67.4751 64.0555 70.2048 63.9982 73.1372 63.94C76.0684 63.8834 79.1718 63.826 82.4474 63.7678C85.7226 63.7115 88.9695 63.6828 92.1879 63.6818C100.921 63.6818 108.277 64.7712 114.256 66.95C119.648 68.77 124.566 71.7668 128.652 75.7224C132.115 79.151 134.791 83.2884 136.496 87.8491C138.109 92.2875 138.926 96.9746 138.91 101.696C138.91 110.871 136.783 118.44 132.531 124.401C128.25 130.387 122.233 134.919 115.29 137.388C108.049 140.083 100.003 140.997 91.1537 140.997C88.6241 140.997 86.8425 140.969 85.809 140.911C84.7747 140.855 83.2232 140.826 81.1544 140.825V175.143C81.1845 175.354 81.1651 175.568 81.0977 175.77C81.0303 175.971 80.9169 176.154 80.7663 176.305C80.6157 176.455 80.4322 176.568 80.2302 176.635C80.0282 176.702 79.8133 176.722 79.6025 176.692H59.0764C58.2712 176.692 57.8696 176.235 57.8696 175.315ZM81.1543 84.8389V120.688C82.6466 120.804 84.0257 120.861 85.2918 120.86H90.9811C95.1672 120.846 99.3258 120.184 103.308 118.897C106.724 117.885 109.776 115.914 112.101 113.22C114.342 110.584 115.462 106.914 115.463 102.212C115.554 98.8846 114.686 95.6012 112.962 92.7512C111.151 89.9955 108.532 87.8635 105.463 86.6451C101.456 85.0909 97.1749 84.3597 92.8775 84.4951C90.1189 84.4951 87.6766 84.5237 85.5506 84.5809C83.4225 84.6401 81.9571 84.7261 81.1543 84.8389Z" fill="#241F1F"/>
<path d="M205.569 114.17C202.329 112.509 198.878 111.294 195.311 110.558C191.38 109.658 187.362 109.196 183.329 109.181C181.147 109.122 178.969 109.383 176.864 109.956C175.524 110.253 174.332 111.015 173.502 112.106C172.94 112.978 172.641 113.993 172.64 115.03C172.671 116.036 173.035 117.003 173.674 117.782C174.681 118.957 175.912 119.922 177.295 120.62C179.753 121.941 182.286 123.118 184.88 124.146C190.667 126.079 196.195 128.707 201.345 131.973C204.853 134.182 207.756 137.226 209.793 140.831C211.506 144.245 212.363 148.023 212.293 151.84C212.396 156.88 210.952 161.832 208.155 166.03C205.161 170.293 201.001 173.606 196.173 175.577C190.941 177.869 184.476 179.016 176.777 179.017C171.887 179.066 167.004 178.605 162.209 177.641C158.432 176.95 154.754 175.794 151.262 174.201C150.885 174.007 150.571 173.709 150.357 173.344C150.143 172.978 150.039 172.559 150.055 172.137V153.56C150.034 153.378 150.063 153.194 150.139 153.027C150.215 152.86 150.335 152.718 150.486 152.614C150.634 152.53 150.804 152.494 150.973 152.509C151.143 152.524 151.304 152.591 151.434 152.7C155.559 155.126 160.038 156.896 164.709 157.946C168.827 158.976 173.05 159.524 177.295 159.58C181.316 159.58 184.276 159.064 186.173 158.032C187.03 157.641 187.755 157.01 188.26 156.216C188.765 155.423 189.028 154.5 189.018 153.56C189.018 152.071 188.156 150.638 186.432 149.26C184.708 147.883 181.203 146.221 175.915 144.271C170.502 142.391 165.369 139.788 160.657 136.531C157.287 134.193 154.513 131.1 152.555 127.5C150.859 124.111 150.002 120.366 150.055 116.578C150.045 112.027 151.298 107.562 153.675 103.677C156.385 99.3997 160.277 95.9949 164.882 93.8728C169.938 91.3518 176.259 90.0904 183.846 90.0886C188.289 90.0529 192.728 90.3693 197.121 91.0346C200.302 91.4372 203.413 92.2765 206.363 93.5287C206.597 93.5957 206.813 93.7161 206.992 93.8803C207.172 94.0444 207.31 94.2479 207.398 94.4748C207.514 94.8949 207.572 95.329 207.57 95.7649V113.138C207.582 113.34 207.541 113.542 207.45 113.723C207.359 113.904 207.222 114.058 207.053 114.17C206.822 114.284 206.568 114.344 206.311 114.344C206.054 114.344 205.8 114.284 205.569 114.17Z" fill="#241F1F"/>
</g>
<defs>
<clipPath id="clip0_127_12">
<rect width="257" height="250" fill="white"/>
</clipPath>
</defs>
</svg>
