<svg width="256" height="250" viewBox="0 0 256 250" fill="none" xmlns="http://www.w3.org/2000/svg">
<g clip-path="url(#clip0_127_32)">
<path d="M45.3333 0H210.667C235.733 0 256 20.2991 256 45.406V204.594C256 229.701 235.733 250 210.667 250H45.3333C20.2667 250 0 229.701 0 204.594V45.406C0 20.2991 20.2667 0 45.3333 0Z" fill="#FCF3EA"/>
<path d="M60.8 175.321V65.3846C60.8 64.6367 61.12 64.2094 61.8667 64.2094C63.68 64.2094 65.3867 64.2094 67.84 64.1025C70.4 63.9957 73.0667 63.9957 75.9467 63.8889C78.8267 63.782 81.92 63.782 85.2267 63.6752C88.5333 63.5684 91.7333 63.5684 94.9333 63.5684C103.68 63.5684 110.933 64.6367 116.907 66.8803C122.24 68.6966 127.147 71.688 131.2 75.641C134.613 79.0598 137.28 83.2265 138.987 87.8205C140.587 92.3077 141.44 96.9017 141.44 101.709C141.44 110.897 139.307 118.483 135.04 124.466C130.773 130.449 124.8 134.936 117.867 137.5C110.613 140.171 102.613 141.132 93.8667 141.132C91.3067 141.132 89.6 141.132 88.5333 141.026C87.4667 140.919 85.9733 140.919 83.9467 140.919V175.214C84.0533 175.962 83.52 176.603 82.7733 176.709C82.6667 176.709 82.56 176.709 82.3467 176.709H62.08C61.2267 176.709 60.8 176.282 60.8 175.321ZM84.0533 84.829V120.726C85.5467 120.833 86.9333 120.94 88.2133 120.94H93.8667C98.0267 120.94 102.187 120.299 106.133 119.017C109.547 118.056 112.533 116.026 114.88 113.355C117.12 110.684 118.187 107.051 118.187 102.35C118.293 99.0384 117.44 95.7265 115.733 92.8419C113.92 90.0641 111.36 87.9273 108.267 86.7521C104.32 85.1496 100.053 84.5085 95.68 84.6154C92.9067 84.6154 90.4533 84.6154 88.4267 84.7222C86.2933 84.6154 84.8 84.7222 84.0533 84.829Z" fill="#241F1F"/>
<path d="M156.373 91.0255H175.04C176.107 91.0255 176.96 91.7734 177.28 92.7349C177.6 93.5896 177.813 94.4443 177.92 95.4059C178.133 96.4743 178.347 97.6495 178.453 98.7178C178.56 99.8931 178.667 101.175 178.667 102.564C181.867 98.8247 185.707 95.7264 190.08 93.376C194.987 90.5982 200.64 89.2093 206.293 89.2093C207.04 89.1025 207.68 89.6366 207.787 90.3845C207.787 90.4913 207.787 90.5982 207.787 90.8119V111.645C207.787 112.5 207.253 112.82 206.08 112.82C202.24 112.714 198.293 113.034 194.56 113.889C191.467 114.53 188.48 115.491 185.6 116.773C183.573 117.735 181.653 119.017 180.16 120.726V175.214C180.16 176.282 179.733 176.709 178.773 176.709H157.76C156.907 176.816 156.16 176.282 156.053 175.427C156.053 175.32 156.053 175.107 156.053 175V115.812C156.053 113.248 156.053 110.577 155.947 107.799C155.84 105.021 155.84 102.243 155.733 99.4657C155.733 97.0084 155.52 94.658 155.307 92.2007C155.2 91.6666 155.52 91.1324 156.053 91.0255C156.053 90.9187 156.267 90.9187 156.373 91.0255Z" fill="#241F1F"/>
</g>
<defs>
<clipPath id="clip0_127_32">
<rect width="256" height="250" fill="white"/>
</clipPath>
</defs>
</svg>
