<svg width="257" height="250" viewBox="0 0 257 250" fill="none" xmlns="http://www.w3.org/2000/svg">
<g clip-path="url(#clip0_158_8)">
<path d="M211.49 0H45.5104C20.3757 0 0 20.329 0 45.406V204.594C0 229.671 20.3757 250 45.5104 250H211.49C236.624 250 257 229.671 257 204.594V45.406C257 20.329 236.624 0 211.49 0Z" fill="#FCF3EA"/>
<path d="M155.807 151.472C141.426 165.624 119.518 185.691 99.0374 185.824C82.2604 185.94 70.3883 174.527 67.6182 171.597C67.2602 171.218 67.2839 170.634 67.6525 170.266L93.839 144.086C94.1144 143.811 94.5245 143.72 94.89 143.854L115.651 151.46C116.016 151.593 116.426 151.503 116.702 151.228L155.348 112.589C155.627 112.309 155.716 111.892 155.575 111.524L147.728 91.0346C147.587 90.6662 147.676 90.2492 147.955 89.9701L173.112 64.7989C173.481 64.4293 174.067 64.4062 174.446 64.7657C177.377 67.5445 188.792 79.4145 188.998 95.8781C189.242 115.967 169.426 137.624 155.807 151.472Z" stroke="#241F1F" stroke-width="14"/>
</g>
<defs>
<clipPath id="clip0_158_8">
<rect width="257" height="250" fill="white"/>
</clipPath>
</defs>
</svg>
